<mxfile host="Electron" modified="2023-06-10T15:31:45.012Z" agent="Mozilla/5.0 (Windows NT 10.0; Win64; x64) AppleWebKit/537.36 (KHTML, like Gecko) draw.io/21.3.7 Chrome/112.0.5615.204 Electron/24.5.0 Safari/537.36" etag="ypV1zoK6KJznJtuWT174" version="21.3.7" type="device">
  <diagram name="Page-1" id="c4acf3e9-155e-7222-9cf6-157b1a14988f">
    <mxGraphModel dx="2440" dy="1416" grid="1" gridSize="10" guides="1" tooltips="1" connect="1" arrows="1" fold="1" page="1" pageScale="1" pageWidth="1169" pageHeight="827" background="none" math="0" shadow="0">
      <root>
        <mxCell id="0" />
        <mxCell id="1" parent="0" />
        <mxCell id="17acba5748e5396b-1" value="AST output" style="shape=umlFrame;whiteSpace=wrap;html=1;rounded=0;shadow=0;comic=0;labelBackgroundColor=none;strokeWidth=1;fontFamily=UGent Panno Text;fontSize=24;align=center;width=110;height=30;movable=1;resizable=1;rotatable=1;deletable=1;editable=1;locked=0;connectable=1;" parent="1" vertex="1">
          <mxGeometry x="30" y="20" width="1580" height="1010" as="geometry" />
        </mxCell>
        <mxCell id="17acba5748e5396b-20" value="Function" style="swimlane;html=1;fontStyle=0;childLayout=stackLayout;horizontal=1;startSize=26;fillColor=none;horizontalStack=0;resizeParent=1;resizeLast=0;collapsible=1;marginBottom=0;swimlaneFillColor=#ffffff;rounded=0;shadow=0;comic=0;labelBackgroundColor=none;strokeWidth=1;fontFamily=UGent Panno Text;fontSize=24;align=center;" parent="1" vertex="1">
          <mxGeometry x="70" y="80" width="330" height="210" as="geometry" />
        </mxCell>
        <mxCell id="17acba5748e5396b-21" value="+ span: &lt;b&gt;Span&lt;/b&gt;" style="text;html=1;strokeColor=none;fillColor=none;align=left;verticalAlign=top;spacingLeft=4;spacingRight=4;whiteSpace=wrap;overflow=hidden;rotatable=0;points=[[0,0.5],[1,0.5]];portConstraint=eastwest;fontFamily=UGent Panno Text;fontSize=18;" parent="17acba5748e5396b-20" vertex="1">
          <mxGeometry y="26" width="330" height="26" as="geometry" />
        </mxCell>
        <mxCell id="17acba5748e5396b-24" value="+ fn_keyword: &lt;b&gt;T[fn]&lt;/b&gt;" style="text;html=1;strokeColor=none;fillColor=none;align=left;verticalAlign=top;spacingLeft=4;spacingRight=4;whiteSpace=wrap;overflow=hidden;rotatable=0;points=[[0,0.5],[1,0.5]];portConstraint=eastwest;fontFamily=UGent Panno Text;fontSize=18;" parent="17acba5748e5396b-20" vertex="1">
          <mxGeometry y="52" width="330" height="26" as="geometry" />
        </mxCell>
        <mxCell id="LIXHTTDTbbccTMAF5y76-4" value="+ name: &lt;b&gt;Identifier&lt;/b&gt;" style="text;html=1;strokeColor=none;fillColor=none;align=left;verticalAlign=top;spacingLeft=4;spacingRight=4;whiteSpace=wrap;overflow=hidden;rotatable=0;points=[[0,0.5],[1,0.5]];portConstraint=eastwest;fontFamily=UGent Panno Text;fontSize=18;" vertex="1" parent="17acba5748e5396b-20">
          <mxGeometry y="78" width="330" height="26" as="geometry" />
        </mxCell>
        <mxCell id="LIXHTTDTbbccTMAF5y76-5" value="+ arguments: &lt;b&gt;Parenthesized&amp;lt;FunctionArgument&amp;gt;&lt;/b&gt;" style="text;html=1;strokeColor=none;fillColor=none;align=left;verticalAlign=top;spacingLeft=4;spacingRight=4;whiteSpace=wrap;overflow=hidden;rotatable=0;points=[[0,0.5],[1,0.5]];portConstraint=eastwest;fontFamily=UGent Panno Text;fontSize=18;" vertex="1" parent="17acba5748e5396b-20">
          <mxGeometry y="104" width="330" height="26" as="geometry" />
        </mxCell>
        <mxCell id="LIXHTTDTbbccTMAF5y76-6" value="+ return_type: &lt;b&gt;ReturnType?&lt;/b&gt;" style="text;html=1;strokeColor=none;fillColor=none;align=left;verticalAlign=top;spacingLeft=4;spacingRight=4;whiteSpace=wrap;overflow=hidden;rotatable=0;points=[[0,0.5],[1,0.5]];portConstraint=eastwest;fontFamily=UGent Panno Text;fontSize=18;" vertex="1" parent="17acba5748e5396b-20">
          <mxGeometry y="130" width="330" height="26" as="geometry" />
        </mxCell>
        <mxCell id="LIXHTTDTbbccTMAF5y76-7" value="+ body: &lt;b&gt;Block&lt;/b&gt;" style="text;html=1;strokeColor=none;fillColor=none;align=left;verticalAlign=top;spacingLeft=4;spacingRight=4;whiteSpace=wrap;overflow=hidden;rotatable=0;points=[[0,0.5],[1,0.5]];portConstraint=eastwest;fontFamily=UGent Panno Text;fontSize=18;" vertex="1" parent="17acba5748e5396b-20">
          <mxGeometry y="156" width="330" height="26" as="geometry" />
        </mxCell>
        <mxCell id="17acba5748e5396b-30" value="Span" style="swimlane;html=1;fontStyle=0;childLayout=stackLayout;horizontal=1;startSize=26;fillColor=none;horizontalStack=0;resizeParent=1;resizeLast=0;collapsible=1;marginBottom=0;swimlaneFillColor=#ffffff;rounded=0;shadow=0;comic=0;labelBackgroundColor=none;strokeWidth=1;fontFamily=UGent Panno Text;fontSize=24;align=center;" parent="1" vertex="1">
          <mxGeometry x="514" y="40" width="160" height="90" as="geometry" />
        </mxCell>
        <mxCell id="17acba5748e5396b-31" value="+ start: &lt;b style=&quot;font-size: 18px;&quot;&gt;integer&lt;/b&gt;" style="text;html=1;strokeColor=none;fillColor=none;align=left;verticalAlign=top;spacingLeft=4;spacingRight=4;whiteSpace=wrap;overflow=hidden;rotatable=0;points=[[0,0.5],[1,0.5]];portConstraint=eastwest;fontFamily=UGent Panno Text;fontSize=18;" parent="17acba5748e5396b-30" vertex="1">
          <mxGeometry y="26" width="160" height="26" as="geometry" />
        </mxCell>
        <mxCell id="17acba5748e5396b-32" value="+ end: &lt;b style=&quot;font-size: 18px;&quot;&gt;integer&lt;/b&gt;" style="text;html=1;strokeColor=none;fillColor=none;align=left;verticalAlign=top;spacingLeft=4;spacingRight=4;whiteSpace=wrap;overflow=hidden;rotatable=0;points=[[0,0.5],[1,0.5]];portConstraint=eastwest;fontFamily=UGent Panno Text;fontSize=18;" parent="17acba5748e5396b-30" vertex="1">
          <mxGeometry y="52" width="160" height="26" as="geometry" />
        </mxCell>
        <mxCell id="LIXHTTDTbbccTMAF5y76-12" style="edgeStyle=orthogonalEdgeStyle;rounded=0;orthogonalLoop=1;jettySize=auto;html=1;exitX=1;exitY=0.5;exitDx=0;exitDy=0;entryX=0.001;entryY=0.131;entryDx=0;entryDy=0;entryPerimeter=0;dashed=1;" edge="1" parent="1" source="17acba5748e5396b-21" target="17acba5748e5396b-30">
          <mxGeometry relative="1" as="geometry">
            <Array as="points">
              <mxPoint x="480" y="119" />
              <mxPoint x="480" y="52" />
            </Array>
          </mxGeometry>
        </mxCell>
        <mxCell id="LIXHTTDTbbccTMAF5y76-16" value="Identifier" style="swimlane;html=1;fontStyle=0;childLayout=stackLayout;horizontal=1;startSize=26;fillColor=none;horizontalStack=0;resizeParent=1;resizeLast=0;collapsible=1;marginBottom=0;swimlaneFillColor=#ffffff;rounded=0;shadow=0;comic=0;labelBackgroundColor=none;strokeWidth=1;fontFamily=UGent Panno Text;fontSize=24;align=center;" vertex="1" parent="1">
          <mxGeometry x="514" y="159" width="160" height="90" as="geometry" />
        </mxCell>
        <mxCell id="LIXHTTDTbbccTMAF5y76-17" value="+ span: &lt;b&gt;Span&lt;/b&gt;" style="text;html=1;strokeColor=none;fillColor=none;align=left;verticalAlign=top;spacingLeft=4;spacingRight=4;whiteSpace=wrap;overflow=hidden;rotatable=0;points=[[0,0.5],[1,0.5]];portConstraint=eastwest;fontFamily=UGent Panno Text;fontSize=18;" vertex="1" parent="LIXHTTDTbbccTMAF5y76-16">
          <mxGeometry y="26" width="160" height="26" as="geometry" />
        </mxCell>
        <mxCell id="LIXHTTDTbbccTMAF5y76-18" value="+ name: &lt;b&gt;String&lt;/b&gt;" style="text;html=1;strokeColor=none;fillColor=none;align=left;verticalAlign=top;spacingLeft=4;spacingRight=4;whiteSpace=wrap;overflow=hidden;rotatable=0;points=[[0,0.5],[1,0.5]];portConstraint=eastwest;fontFamily=UGent Panno Text;fontSize=18;" vertex="1" parent="LIXHTTDTbbccTMAF5y76-16">
          <mxGeometry y="52" width="160" height="26" as="geometry" />
        </mxCell>
        <mxCell id="LIXHTTDTbbccTMAF5y76-20" style="edgeStyle=orthogonalEdgeStyle;shape=connector;rounded=0;orthogonalLoop=1;jettySize=auto;html=1;entryX=0.004;entryY=0.131;entryDx=0;entryDy=0;entryPerimeter=0;dashed=1;labelBackgroundColor=default;strokeColor=default;fontFamily=Helvetica;fontSize=11;fontColor=default;endArrow=classic;" edge="1" parent="1" source="LIXHTTDTbbccTMAF5y76-4" target="LIXHTTDTbbccTMAF5y76-16">
          <mxGeometry relative="1" as="geometry" />
        </mxCell>
        <mxCell id="LIXHTTDTbbccTMAF5y76-21" value="Parenthensized&amp;lt;E&amp;gt;" style="swimlane;html=1;fontStyle=0;childLayout=stackLayout;horizontal=1;startSize=26;fillColor=none;horizontalStack=0;resizeParent=1;resizeLast=0;collapsible=1;marginBottom=0;swimlaneFillColor=#ffffff;rounded=0;shadow=0;comic=0;labelBackgroundColor=none;strokeWidth=1;fontFamily=UGent Panno Text;fontSize=24;align=center;" vertex="1" parent="1">
          <mxGeometry x="514" y="280" width="190" height="110" as="geometry">
            <mxRectangle x="550" y="280" width="190" height="40" as="alternateBounds" />
          </mxGeometry>
        </mxCell>
        <mxCell id="LIXHTTDTbbccTMAF5y76-22" value="+ open: &lt;b style=&quot;font-size: 18px;&quot;&gt;T[(]&lt;/b&gt;" style="text;html=1;strokeColor=none;fillColor=none;align=left;verticalAlign=top;spacingLeft=4;spacingRight=4;whiteSpace=wrap;overflow=hidden;rotatable=0;points=[[0,0.5],[1,0.5]];portConstraint=eastwest;fontFamily=UGent Panno Text;fontSize=18;" vertex="1" parent="LIXHTTDTbbccTMAF5y76-21">
          <mxGeometry y="26" width="190" height="26" as="geometry" />
        </mxCell>
        <mxCell id="LIXHTTDTbbccTMAF5y76-23" value="+ elems: &lt;b&gt;E[]&lt;/b&gt;" style="text;html=1;strokeColor=none;fillColor=none;align=left;verticalAlign=top;spacingLeft=4;spacingRight=4;whiteSpace=wrap;overflow=hidden;rotatable=0;points=[[0,0.5],[1,0.5]];portConstraint=eastwest;fontFamily=UGent Panno Text;fontSize=18;" vertex="1" parent="LIXHTTDTbbccTMAF5y76-21">
          <mxGeometry y="52" width="190" height="26" as="geometry" />
        </mxCell>
        <mxCell id="LIXHTTDTbbccTMAF5y76-24" value="+ close: &lt;b&gt;T[)]&lt;/b&gt;" style="text;html=1;strokeColor=none;fillColor=none;align=left;verticalAlign=top;spacingLeft=4;spacingRight=4;whiteSpace=wrap;overflow=hidden;rotatable=0;points=[[0,0.5],[1,0.5]];portConstraint=eastwest;fontFamily=UGent Panno Text;fontSize=18;" vertex="1" parent="LIXHTTDTbbccTMAF5y76-21">
          <mxGeometry y="78" width="190" height="26" as="geometry" />
        </mxCell>
        <mxCell id="LIXHTTDTbbccTMAF5y76-25" style="edgeStyle=orthogonalEdgeStyle;shape=connector;rounded=0;orthogonalLoop=1;jettySize=auto;html=1;entryX=0.001;entryY=0.13;entryDx=0;entryDy=0;entryPerimeter=0;dashed=1;labelBackgroundColor=default;strokeColor=default;fontFamily=Helvetica;fontSize=11;fontColor=default;endArrow=classic;" edge="1" parent="1" source="LIXHTTDTbbccTMAF5y76-5" target="LIXHTTDTbbccTMAF5y76-21">
          <mxGeometry relative="1" as="geometry">
            <Array as="points">
              <mxPoint x="480" y="197" />
              <mxPoint x="480" y="294" />
            </Array>
          </mxGeometry>
        </mxCell>
        <mxCell id="LIXHTTDTbbccTMAF5y76-26" value="FunctionArgument" style="swimlane;html=1;fontStyle=0;childLayout=stackLayout;horizontal=1;startSize=26;fillColor=none;horizontalStack=0;resizeParent=1;resizeLast=0;collapsible=1;marginBottom=0;swimlaneFillColor=#ffffff;rounded=0;shadow=0;comic=0;labelBackgroundColor=none;strokeWidth=1;fontFamily=UGent Panno Text;fontSize=24;align=center;" vertex="1" parent="1">
          <mxGeometry x="778" y="328" width="210" height="190" as="geometry">
            <mxRectangle x="550" y="280" width="190" height="40" as="alternateBounds" />
          </mxGeometry>
        </mxCell>
        <mxCell id="LIXHTTDTbbccTMAF5y76-34" value="+ span:&lt;b&gt;&amp;nbsp;Span&lt;/b&gt;" style="text;html=1;strokeColor=none;fillColor=none;align=left;verticalAlign=top;spacingLeft=4;spacingRight=4;whiteSpace=wrap;overflow=hidden;rotatable=0;points=[[0,0.5],[1,0.5]];portConstraint=eastwest;fontFamily=UGent Panno Text;fontSize=18;" vertex="1" parent="LIXHTTDTbbccTMAF5y76-26">
          <mxGeometry y="26" width="210" height="26" as="geometry" />
        </mxCell>
        <mxCell id="LIXHTTDTbbccTMAF5y76-27" value="+ constraints:&lt;b&gt;&amp;nbsp;Constraints[]&lt;/b&gt;" style="text;html=1;strokeColor=none;fillColor=none;align=left;verticalAlign=top;spacingLeft=4;spacingRight=4;whiteSpace=wrap;overflow=hidden;rotatable=0;points=[[0,0.5],[1,0.5]];portConstraint=eastwest;fontFamily=UGent Panno Text;fontSize=18;" vertex="1" parent="LIXHTTDTbbccTMAF5y76-26">
          <mxGeometry y="52" width="210" height="26" as="geometry" />
        </mxCell>
        <mxCell id="LIXHTTDTbbccTMAF5y76-29" value="+ colon_token: &lt;b&gt;T[:]&lt;/b&gt;" style="text;html=1;strokeColor=none;fillColor=none;align=left;verticalAlign=top;spacingLeft=4;spacingRight=4;whiteSpace=wrap;overflow=hidden;rotatable=0;points=[[0,0.5],[1,0.5]];portConstraint=eastwest;fontFamily=UGent Panno Text;fontSize=18;" vertex="1" parent="LIXHTTDTbbccTMAF5y76-26">
          <mxGeometry y="78" width="210" height="26" as="geometry" />
        </mxCell>
        <mxCell id="LIXHTTDTbbccTMAF5y76-28" value="+ name: &lt;b&gt;Pattern&lt;/b&gt;" style="text;html=1;strokeColor=none;fillColor=none;align=left;verticalAlign=top;spacingLeft=4;spacingRight=4;whiteSpace=wrap;overflow=hidden;rotatable=0;points=[[0,0.5],[1,0.5]];portConstraint=eastwest;fontFamily=UGent Panno Text;fontSize=18;" vertex="1" parent="LIXHTTDTbbccTMAF5y76-26">
          <mxGeometry y="104" width="210" height="26" as="geometry" />
        </mxCell>
        <mxCell id="LIXHTTDTbbccTMAF5y76-30" value="+ type: &lt;b&gt;Type&lt;/b&gt;" style="text;html=1;strokeColor=none;fillColor=none;align=left;verticalAlign=top;spacingLeft=4;spacingRight=4;whiteSpace=wrap;overflow=hidden;rotatable=0;points=[[0,0.5],[1,0.5]];portConstraint=eastwest;fontFamily=UGent Panno Text;fontSize=18;" vertex="1" parent="LIXHTTDTbbccTMAF5y76-26">
          <mxGeometry y="130" width="210" height="26" as="geometry" />
        </mxCell>
        <mxCell id="LIXHTTDTbbccTMAF5y76-31" value="+ default: &lt;b&gt;(T[=], Expr)?&lt;/b&gt;" style="text;html=1;strokeColor=none;fillColor=none;align=left;verticalAlign=top;spacingLeft=4;spacingRight=4;whiteSpace=wrap;overflow=hidden;rotatable=0;points=[[0,0.5],[1,0.5]];portConstraint=eastwest;fontFamily=UGent Panno Text;fontSize=18;" vertex="1" parent="LIXHTTDTbbccTMAF5y76-26">
          <mxGeometry y="156" width="210" height="26" as="geometry" />
        </mxCell>
        <mxCell id="LIXHTTDTbbccTMAF5y76-32" style="edgeStyle=orthogonalEdgeStyle;shape=connector;rounded=0;orthogonalLoop=1;jettySize=auto;html=1;exitX=1;exitY=0.5;exitDx=0;exitDy=0;entryX=0;entryY=0.087;entryDx=0;entryDy=0;entryPerimeter=0;dashed=1;labelBackgroundColor=default;strokeColor=default;fontFamily=Helvetica;fontSize=11;fontColor=default;endArrow=classic;" edge="1" parent="1" source="LIXHTTDTbbccTMAF5y76-23" target="LIXHTTDTbbccTMAF5y76-26">
          <mxGeometry relative="1" as="geometry" />
        </mxCell>
        <mxCell id="LIXHTTDTbbccTMAF5y76-38" value="ReturnType" style="swimlane;html=1;fontStyle=0;childLayout=stackLayout;horizontal=1;startSize=26;fillColor=none;horizontalStack=0;resizeParent=1;resizeLast=0;collapsible=1;marginBottom=0;swimlaneFillColor=#ffffff;rounded=0;shadow=0;comic=0;labelBackgroundColor=none;strokeWidth=1;fontFamily=UGent Panno Text;fontSize=24;align=center;" vertex="1" parent="1">
          <mxGeometry x="514" y="527" width="190" height="110" as="geometry">
            <mxRectangle x="550" y="280" width="190" height="40" as="alternateBounds" />
          </mxGeometry>
        </mxCell>
        <mxCell id="LIXHTTDTbbccTMAF5y76-41" value="+ span: &lt;b&gt;Span&lt;/b&gt;" style="text;html=1;strokeColor=none;fillColor=none;align=left;verticalAlign=top;spacingLeft=4;spacingRight=4;whiteSpace=wrap;overflow=hidden;rotatable=0;points=[[0,0.5],[1,0.5]];portConstraint=eastwest;fontFamily=UGent Panno Text;fontSize=18;" vertex="1" parent="LIXHTTDTbbccTMAF5y76-38">
          <mxGeometry y="26" width="190" height="26" as="geometry" />
        </mxCell>
        <mxCell id="LIXHTTDTbbccTMAF5y76-39" value="+ arrow_token: &lt;b style=&quot;font-size: 18px;&quot;&gt;T[-&amp;gt;]&lt;/b&gt;" style="text;html=1;strokeColor=none;fillColor=none;align=left;verticalAlign=top;spacingLeft=4;spacingRight=4;whiteSpace=wrap;overflow=hidden;rotatable=0;points=[[0,0.5],[1,0.5]];portConstraint=eastwest;fontFamily=UGent Panno Text;fontSize=18;" vertex="1" parent="LIXHTTDTbbccTMAF5y76-38">
          <mxGeometry y="52" width="190" height="26" as="geometry" />
        </mxCell>
        <mxCell id="LIXHTTDTbbccTMAF5y76-40" value="+ elems: &lt;b&gt;Type&lt;/b&gt;" style="text;html=1;strokeColor=none;fillColor=none;align=left;verticalAlign=top;spacingLeft=4;spacingRight=4;whiteSpace=wrap;overflow=hidden;rotatable=0;points=[[0,0.5],[1,0.5]];portConstraint=eastwest;fontFamily=UGent Panno Text;fontSize=18;" vertex="1" parent="LIXHTTDTbbccTMAF5y76-38">
          <mxGeometry y="78" width="190" height="26" as="geometry" />
        </mxCell>
        <mxCell id="LIXHTTDTbbccTMAF5y76-42" style="edgeStyle=orthogonalEdgeStyle;shape=connector;rounded=0;orthogonalLoop=1;jettySize=auto;html=1;exitX=1;exitY=0.5;exitDx=0;exitDy=0;entryX=-0.005;entryY=0.129;entryDx=0;entryDy=0;entryPerimeter=0;dashed=1;labelBackgroundColor=default;strokeColor=default;fontFamily=Helvetica;fontSize=11;fontColor=default;endArrow=classic;" edge="1" parent="1" source="LIXHTTDTbbccTMAF5y76-6" target="LIXHTTDTbbccTMAF5y76-38">
          <mxGeometry relative="1" as="geometry">
            <Array as="points">
              <mxPoint x="460" y="223" />
              <mxPoint x="460" y="541" />
            </Array>
          </mxGeometry>
        </mxCell>
        <mxCell id="LIXHTTDTbbccTMAF5y76-43" value="Block" style="swimlane;html=1;fontStyle=0;childLayout=stackLayout;horizontal=1;startSize=26;fillColor=none;horizontalStack=0;resizeParent=1;resizeLast=0;collapsible=1;marginBottom=0;swimlaneFillColor=#ffffff;rounded=0;shadow=0;comic=0;labelBackgroundColor=none;strokeWidth=1;fontFamily=UGent Panno Text;fontSize=24;align=center;" vertex="1" parent="1">
          <mxGeometry x="514" y="677" width="190" height="130" as="geometry">
            <mxRectangle x="550" y="280" width="190" height="40" as="alternateBounds" />
          </mxGeometry>
        </mxCell>
        <mxCell id="LIXHTTDTbbccTMAF5y76-44" value="+ span: &lt;b&gt;Span&lt;/b&gt;" style="text;html=1;strokeColor=none;fillColor=none;align=left;verticalAlign=top;spacingLeft=4;spacingRight=4;whiteSpace=wrap;overflow=hidden;rotatable=0;points=[[0,0.5],[1,0.5]];portConstraint=eastwest;fontFamily=UGent Panno Text;fontSize=18;" vertex="1" parent="LIXHTTDTbbccTMAF5y76-43">
          <mxGeometry y="26" width="190" height="26" as="geometry" />
        </mxCell>
        <mxCell id="LIXHTTDTbbccTMAF5y76-45" value="+ brace_open_token: &lt;b style=&quot;font-size: 18px;&quot;&gt;T[{]&lt;/b&gt;" style="text;html=1;strokeColor=none;fillColor=none;align=left;verticalAlign=top;spacingLeft=4;spacingRight=4;whiteSpace=wrap;overflow=hidden;rotatable=0;points=[[0,0.5],[1,0.5]];portConstraint=eastwest;fontFamily=UGent Panno Text;fontSize=18;" vertex="1" parent="LIXHTTDTbbccTMAF5y76-43">
          <mxGeometry y="52" width="190" height="26" as="geometry" />
        </mxCell>
        <mxCell id="LIXHTTDTbbccTMAF5y76-46" value="+ statements: &lt;b&gt;Statement[]&lt;/b&gt;" style="text;html=1;strokeColor=none;fillColor=none;align=left;verticalAlign=top;spacingLeft=4;spacingRight=4;whiteSpace=wrap;overflow=hidden;rotatable=0;points=[[0,0.5],[1,0.5]];portConstraint=eastwest;fontFamily=UGent Panno Text;fontSize=18;" vertex="1" parent="LIXHTTDTbbccTMAF5y76-43">
          <mxGeometry y="78" width="190" height="26" as="geometry" />
        </mxCell>
        <mxCell id="LIXHTTDTbbccTMAF5y76-47" value="+ brace_close_token: &lt;b style=&quot;font-size: 18px;&quot;&gt;T[}]&lt;/b&gt;" style="text;html=1;strokeColor=none;fillColor=none;align=left;verticalAlign=top;spacingLeft=4;spacingRight=4;whiteSpace=wrap;overflow=hidden;rotatable=0;points=[[0,0.5],[1,0.5]];portConstraint=eastwest;fontFamily=UGent Panno Text;fontSize=18;" vertex="1" parent="LIXHTTDTbbccTMAF5y76-43">
          <mxGeometry y="104" width="190" height="26" as="geometry" />
        </mxCell>
        <mxCell id="LIXHTTDTbbccTMAF5y76-53" value="" style="group" vertex="1" connectable="0" parent="1">
          <mxGeometry x="778" y="732" width="190" height="200" as="geometry" />
        </mxCell>
        <mxCell id="5d2195bd80daf111-15" value="&lt;p style=&quot;margin: 4px 0px 0px; text-align: center; font-size: 24px;&quot;&gt;&lt;i style=&quot;font-size: 24px;&quot;&gt;&amp;lt;&amp;lt;Enumeration&amp;gt;&amp;gt;&lt;/i&gt;&lt;br style=&quot;font-size: 24px;&quot;&gt;&lt;b&gt;Statement&lt;/b&gt;&lt;/p&gt;&lt;hr style=&quot;font-size: 24px;&quot;&gt;&lt;p style=&quot;margin: 0px 0px 0px 4px; font-size: 24px;&quot;&gt;&lt;br&gt;&lt;/p&gt;" style="verticalAlign=top;align=left;overflow=fill;fontSize=24;fontFamily=UGent Panno Text;html=1;rounded=0;shadow=0;comic=0;labelBackgroundColor=none;strokeWidth=1" parent="LIXHTTDTbbccTMAF5y76-53" vertex="1">
          <mxGeometry width="190" height="200" as="geometry" />
        </mxCell>
        <mxCell id="LIXHTTDTbbccTMAF5y76-49" value="Expr(&lt;b&gt;Expr&lt;/b&gt;)" style="text;html=1;strokeColor=none;fillColor=none;align=left;verticalAlign=top;spacingLeft=4;spacingRight=4;whiteSpace=wrap;overflow=hidden;rotatable=0;points=[[0,0.5],[1,0.5]];portConstraint=eastwest;fontFamily=UGent Panno Text;fontSize=18;" vertex="1" parent="LIXHTTDTbbccTMAF5y76-53">
          <mxGeometry y="80" width="190" height="26" as="geometry" />
        </mxCell>
        <mxCell id="LIXHTTDTbbccTMAF5y76-50" value="Item(&lt;b&gt;Item&lt;/b&gt;)" style="text;html=1;strokeColor=none;fillColor=none;align=left;verticalAlign=top;spacingLeft=4;spacingRight=4;whiteSpace=wrap;overflow=hidden;rotatable=0;points=[[0,0.5],[1,0.5]];portConstraint=eastwest;fontFamily=UGent Panno Text;fontSize=18;" vertex="1" parent="LIXHTTDTbbccTMAF5y76-53">
          <mxGeometry y="106" width="190" height="26" as="geometry" />
        </mxCell>
        <mxCell id="LIXHTTDTbbccTMAF5y76-51" value="ExprSemi(&lt;b&gt;Expr&lt;/b&gt;, &lt;b&gt;T[,]&lt;/b&gt;)" style="text;html=1;strokeColor=none;fillColor=none;align=left;verticalAlign=top;spacingLeft=4;spacingRight=4;whiteSpace=wrap;overflow=hidden;rotatable=0;points=[[0,0.5],[1,0.5]];portConstraint=eastwest;fontFamily=UGent Panno Text;fontSize=18;" vertex="1" parent="LIXHTTDTbbccTMAF5y76-53">
          <mxGeometry y="132" width="190" height="26" as="geometry" />
        </mxCell>
        <mxCell id="LIXHTTDTbbccTMAF5y76-52" value="Local(&lt;b&gt;Local&lt;/b&gt;)" style="text;html=1;strokeColor=none;fillColor=none;align=left;verticalAlign=top;spacingLeft=4;spacingRight=4;whiteSpace=wrap;overflow=hidden;rotatable=0;points=[[0,0.5],[1,0.5]];portConstraint=eastwest;fontFamily=UGent Panno Text;fontSize=18;" vertex="1" parent="LIXHTTDTbbccTMAF5y76-53">
          <mxGeometry y="160" width="190" height="26" as="geometry" />
        </mxCell>
        <mxCell id="LIXHTTDTbbccTMAF5y76-58" style="edgeStyle=orthogonalEdgeStyle;shape=connector;rounded=0;orthogonalLoop=1;jettySize=auto;html=1;entryX=0.005;entryY=0.179;entryDx=0;entryDy=0;entryPerimeter=0;dashed=1;labelBackgroundColor=default;strokeColor=default;fontFamily=Helvetica;fontSize=11;fontColor=default;endArrow=classic;" edge="1" parent="1" source="LIXHTTDTbbccTMAF5y76-46" target="5d2195bd80daf111-15">
          <mxGeometry relative="1" as="geometry" />
        </mxCell>
        <mxCell id="LIXHTTDTbbccTMAF5y76-59" value="" style="group" vertex="1" connectable="0" parent="1">
          <mxGeometry x="1098" y="570" width="200" height="440" as="geometry" />
        </mxCell>
        <mxCell id="LIXHTTDTbbccTMAF5y76-60" value="&lt;p style=&quot;margin: 4px 0px 0px; text-align: center; font-size: 24px;&quot;&gt;&lt;i style=&quot;font-size: 24px;&quot;&gt;&amp;lt;&amp;lt;Enumeration&amp;gt;&amp;gt;&lt;/i&gt;&lt;br style=&quot;font-size: 24px;&quot;&gt;&lt;b&gt;Expr&lt;/b&gt;&lt;/p&gt;&lt;hr style=&quot;font-size: 24px;&quot;&gt;&lt;p style=&quot;margin: 0px 0px 0px 4px; font-size: 24px;&quot;&gt;&lt;br&gt;&lt;/p&gt;" style="verticalAlign=top;align=left;overflow=fill;fontSize=24;fontFamily=UGent Panno Text;html=1;rounded=0;shadow=0;comic=0;labelBackgroundColor=none;strokeWidth=1" vertex="1" parent="LIXHTTDTbbccTMAF5y76-59">
          <mxGeometry width="200" height="390" as="geometry" />
        </mxCell>
        <mxCell id="LIXHTTDTbbccTMAF5y76-61" value="Block(&lt;b&gt;Block&lt;/b&gt;)" style="text;html=1;strokeColor=none;fillColor=none;align=left;verticalAlign=top;spacingLeft=4;spacingRight=4;whiteSpace=wrap;overflow=hidden;rotatable=0;points=[[0,0.5],[1,0.5]];portConstraint=eastwest;fontFamily=UGent Panno Text;fontSize=18;" vertex="1" parent="LIXHTTDTbbccTMAF5y76-59">
          <mxGeometry y="80" width="200" height="26" as="geometry" />
        </mxCell>
        <mxCell id="LIXHTTDTbbccTMAF5y76-62" value="Path(&lt;b&gt;Path&lt;/b&gt;)" style="text;html=1;strokeColor=none;fillColor=none;align=left;verticalAlign=top;spacingLeft=4;spacingRight=4;whiteSpace=wrap;overflow=hidden;rotatable=0;points=[[0,0.5],[1,0.5]];portConstraint=eastwest;fontFamily=UGent Panno Text;fontSize=18;" vertex="1" parent="LIXHTTDTbbccTMAF5y76-59">
          <mxGeometry y="106" width="200" height="26" as="geometry" />
        </mxCell>
        <mxCell id="LIXHTTDTbbccTMAF5y76-63" value="Condition(&lt;b&gt;Condition&lt;/b&gt;)" style="text;html=1;strokeColor=none;fillColor=none;align=left;verticalAlign=top;spacingLeft=4;spacingRight=4;whiteSpace=wrap;overflow=hidden;rotatable=0;points=[[0,0.5],[1,0.5]];portConstraint=eastwest;fontFamily=UGent Panno Text;fontSize=18;" vertex="1" parent="LIXHTTDTbbccTMAF5y76-59">
          <mxGeometry y="132" width="200" height="26" as="geometry" />
        </mxCell>
        <mxCell id="LIXHTTDTbbccTMAF5y76-64" value="Match(&lt;b&gt;Match&lt;/b&gt;)" style="text;html=1;strokeColor=none;fillColor=none;align=left;verticalAlign=top;spacingLeft=4;spacingRight=4;whiteSpace=wrap;overflow=hidden;rotatable=0;points=[[0,0.5],[1,0.5]];portConstraint=eastwest;fontFamily=UGent Panno Text;fontSize=18;" vertex="1" parent="LIXHTTDTbbccTMAF5y76-59">
          <mxGeometry y="160" width="200" height="26" as="geometry" />
        </mxCell>
        <mxCell id="LIXHTTDTbbccTMAF5y76-65" value="Loop(&lt;b&gt;Loop&lt;/b&gt;)" style="text;html=1;strokeColor=none;fillColor=none;align=left;verticalAlign=top;spacingLeft=4;spacingRight=4;whiteSpace=wrap;overflow=hidden;rotatable=0;points=[[0,0.5],[1,0.5]];portConstraint=eastwest;fontFamily=UGent Panno Text;fontSize=18;" vertex="1" parent="LIXHTTDTbbccTMAF5y76-59">
          <mxGeometry y="186" width="200" height="26" as="geometry" />
        </mxCell>
        <mxCell id="LIXHTTDTbbccTMAF5y76-66" value="Literal(&lt;b&gt;Literal&lt;/b&gt;)" style="text;html=1;strokeColor=none;fillColor=none;align=left;verticalAlign=top;spacingLeft=4;spacingRight=4;whiteSpace=wrap;overflow=hidden;rotatable=0;points=[[0,0.5],[1,0.5]];portConstraint=eastwest;fontFamily=UGent Panno Text;fontSize=18;" vertex="1" parent="LIXHTTDTbbccTMAF5y76-59">
          <mxGeometry y="212" width="200" height="26" as="geometry" />
        </mxCell>
        <mxCell id="LIXHTTDTbbccTMAF5y76-67" value="Parenthesized(&lt;b&gt;Parenthesized&lt;/b&gt;)" style="text;html=1;strokeColor=none;fillColor=none;align=left;verticalAlign=top;spacingLeft=4;spacingRight=4;whiteSpace=wrap;overflow=hidden;rotatable=0;points=[[0,0.5],[1,0.5]];portConstraint=eastwest;fontFamily=UGent Panno Text;fontSize=18;" vertex="1" parent="LIXHTTDTbbccTMAF5y76-59">
          <mxGeometry y="238" width="200" height="26" as="geometry" />
        </mxCell>
        <mxCell id="LIXHTTDTbbccTMAF5y76-68" value="Empty(&lt;b&gt;EmptyExpr&lt;/b&gt;)" style="text;html=1;strokeColor=none;fillColor=none;align=left;verticalAlign=top;spacingLeft=4;spacingRight=4;whiteSpace=wrap;overflow=hidden;rotatable=0;points=[[0,0.5],[1,0.5]];portConstraint=eastwest;fontFamily=UGent Panno Text;fontSize=18;" vertex="1" parent="LIXHTTDTbbccTMAF5y76-59">
          <mxGeometry y="264" width="200" height="26" as="geometry" />
        </mxCell>
        <mxCell id="LIXHTTDTbbccTMAF5y76-69" value="Unary(&lt;b&gt;UnaryExpr&lt;/b&gt;)" style="text;html=1;strokeColor=none;fillColor=none;align=left;verticalAlign=top;spacingLeft=4;spacingRight=4;whiteSpace=wrap;overflow=hidden;rotatable=0;points=[[0,0.5],[1,0.5]];portConstraint=eastwest;fontFamily=UGent Panno Text;fontSize=18;" vertex="1" parent="LIXHTTDTbbccTMAF5y76-59">
          <mxGeometry y="290" width="200" height="26" as="geometry" />
        </mxCell>
        <mxCell id="LIXHTTDTbbccTMAF5y76-70" value="Binary(&lt;b&gt;BinaryExpr&lt;/b&gt;)" style="text;html=1;strokeColor=none;fillColor=none;align=left;verticalAlign=top;spacingLeft=4;spacingRight=4;whiteSpace=wrap;overflow=hidden;rotatable=0;points=[[0,0.5],[1,0.5]];portConstraint=eastwest;fontFamily=UGent Panno Text;fontSize=18;" vertex="1" parent="LIXHTTDTbbccTMAF5y76-59">
          <mxGeometry y="316" width="200" height="26" as="geometry" />
        </mxCell>
        <mxCell id="LIXHTTDTbbccTMAF5y76-73" value="&lt;b&gt;&lt;font style=&quot;font-size: 23px;&quot;&gt;...&lt;/font&gt;&lt;/b&gt;" style="text;html=1;strokeColor=none;fillColor=none;align=center;verticalAlign=top;spacingLeft=4;spacingRight=4;whiteSpace=wrap;overflow=hidden;rotatable=0;points=[[0,0.5],[1,0.5]];portConstraint=eastwest;fontFamily=UGent Panno Text;fontSize=18;" vertex="1" parent="LIXHTTDTbbccTMAF5y76-59">
          <mxGeometry y="350" width="200" height="26" as="geometry" />
        </mxCell>
        <mxCell id="LIXHTTDTbbccTMAF5y76-74" style="edgeStyle=orthogonalEdgeStyle;shape=connector;rounded=0;orthogonalLoop=1;jettySize=auto;html=1;entryX=0.003;entryY=0.094;entryDx=0;entryDy=0;entryPerimeter=0;dashed=1;labelBackgroundColor=default;strokeColor=default;fontFamily=Helvetica;fontSize=11;fontColor=default;endArrow=classic;" edge="1" parent="1" source="LIXHTTDTbbccTMAF5y76-49" target="LIXHTTDTbbccTMAF5y76-60">
          <mxGeometry relative="1" as="geometry" />
        </mxCell>
        <mxCell id="LIXHTTDTbbccTMAF5y76-82" value="BinaryExpr" style="swimlane;html=1;fontStyle=0;childLayout=stackLayout;horizontal=1;startSize=26;fillColor=none;horizontalStack=0;resizeParent=1;resizeLast=0;collapsible=1;marginBottom=0;swimlaneFillColor=#ffffff;rounded=0;shadow=0;comic=0;labelBackgroundColor=none;strokeWidth=1;fontFamily=UGent Panno Text;fontSize=24;align=center;" vertex="1" parent="1">
          <mxGeometry x="1348" y="860" width="210" height="140" as="geometry">
            <mxRectangle x="550" y="280" width="190" height="40" as="alternateBounds" />
          </mxGeometry>
        </mxCell>
        <mxCell id="LIXHTTDTbbccTMAF5y76-83" value="+ span:&lt;b&gt;&amp;nbsp;Span&lt;/b&gt;" style="text;html=1;strokeColor=none;fillColor=none;align=left;verticalAlign=top;spacingLeft=4;spacingRight=4;whiteSpace=wrap;overflow=hidden;rotatable=0;points=[[0,0.5],[1,0.5]];portConstraint=eastwest;fontFamily=UGent Panno Text;fontSize=18;" vertex="1" parent="LIXHTTDTbbccTMAF5y76-82">
          <mxGeometry y="26" width="210" height="26" as="geometry" />
        </mxCell>
        <mxCell id="LIXHTTDTbbccTMAF5y76-84" value="+ left: &lt;b&gt;Expr&lt;/b&gt;" style="text;html=1;strokeColor=none;fillColor=none;align=left;verticalAlign=top;spacingLeft=4;spacingRight=4;whiteSpace=wrap;overflow=hidden;rotatable=0;points=[[0,0.5],[1,0.5]];portConstraint=eastwest;fontFamily=UGent Panno Text;fontSize=18;" vertex="1" parent="LIXHTTDTbbccTMAF5y76-82">
          <mxGeometry y="52" width="210" height="26" as="geometry" />
        </mxCell>
        <mxCell id="LIXHTTDTbbccTMAF5y76-85" value="+ binary_op: &lt;b&gt;BinaryOp&lt;/b&gt;" style="text;html=1;strokeColor=none;fillColor=none;align=left;verticalAlign=top;spacingLeft=4;spacingRight=4;whiteSpace=wrap;overflow=hidden;rotatable=0;points=[[0,0.5],[1,0.5]];portConstraint=eastwest;fontFamily=UGent Panno Text;fontSize=18;" vertex="1" parent="LIXHTTDTbbccTMAF5y76-82">
          <mxGeometry y="78" width="210" height="26" as="geometry" />
        </mxCell>
        <mxCell id="LIXHTTDTbbccTMAF5y76-86" value="+ right: &lt;b&gt;Expr&lt;/b&gt;" style="text;html=1;strokeColor=none;fillColor=none;align=left;verticalAlign=top;spacingLeft=4;spacingRight=4;whiteSpace=wrap;overflow=hidden;rotatable=0;points=[[0,0.5],[1,0.5]];portConstraint=eastwest;fontFamily=UGent Panno Text;fontSize=18;" vertex="1" parent="LIXHTTDTbbccTMAF5y76-82">
          <mxGeometry y="104" width="210" height="26" as="geometry" />
        </mxCell>
        <mxCell id="LIXHTTDTbbccTMAF5y76-89" style="edgeStyle=orthogonalEdgeStyle;shape=connector;rounded=0;orthogonalLoop=1;jettySize=auto;html=1;exitX=1;exitY=0.5;exitDx=0;exitDy=0;entryX=-0.001;entryY=0.099;entryDx=0;entryDy=0;entryPerimeter=0;dashed=1;labelBackgroundColor=default;strokeColor=default;fontFamily=Helvetica;fontSize=11;fontColor=default;endArrow=classic;" edge="1" parent="1" source="LIXHTTDTbbccTMAF5y76-69" target="LIXHTTDTbbccTMAF5y76-82">
          <mxGeometry relative="1" as="geometry" />
        </mxCell>
        <mxCell id="LIXHTTDTbbccTMAF5y76-103" style="edgeStyle=orthogonalEdgeStyle;shape=connector;rounded=0;orthogonalLoop=1;jettySize=auto;html=1;exitX=1;exitY=0.5;exitDx=0;exitDy=0;entryX=0.001;entryY=0.09;entryDx=0;entryDy=0;entryPerimeter=0;dashed=1;labelBackgroundColor=default;strokeColor=default;fontFamily=Helvetica;fontSize=11;fontColor=default;endArrow=classic;" edge="1" parent="1" source="LIXHTTDTbbccTMAF5y76-7" target="LIXHTTDTbbccTMAF5y76-43">
          <mxGeometry relative="1" as="geometry">
            <Array as="points">
              <mxPoint x="440" y="249" />
              <mxPoint x="440" y="689" />
            </Array>
          </mxGeometry>
        </mxCell>
      </root>
    </mxGraphModel>
  </diagram>
</mxfile>
